<svg height="435pt" viewBox="0 -11 435.376 435" width="435pt" xmlns="http://www.w3.org/2000/svg"><path d="m176.589844 186.328125c-18.199219-22.175781-22.917969-52.480469-12.332032-79.136719 10.589844-26.65625 34.816407-45.464844 63.265626-49.109375-.742188-.09375-1.480469-.199219-2.226563-.273437-30.167969-2.964844-59.367187 11.621094-75.113281 37.527344-15.742188 25.902343-15.25 58.539062 1.273437 83.953124 16.523438 25.417969 46.148438 39.113282 76.214844 35.234376-20.023437-2.464844-38.324219-12.566407-51.082031-28.195313zm0 0" fill="#d4e1f4"/><path d="m400.128906.1875h-364.882812c-19.457032.023438-35.2226565 15.789062-35.246094 35.246094v257.675781c.0234375 19.457031 15.789062 35.226563 35.246094 35.246094h120.492187v71.832031h-27.9375c-3.316406 0-6 2.6875-6 6s2.683594 6 6 6h185.039063c3.3125 0 6-2.6875 6-6s-2.6875-6-6-6h-33.199219v-71.832031h120.488281c19.457032-.019531 35.226563-15.789063 35.246094-35.246094v-257.675781c-.023438-19.457032-15.789062-35.222656-35.246094-35.246094zm-364.882812 12h364.882812c12.832032.015625 23.234375 10.414062 23.246094 23.246094v224.976562h-411.375v-224.976562c.015625-12.832032 10.414062-23.230469 23.246094-23.246094zm232.390625 388h-99.902344v-71.832031h99.902344zm132.492187-83.832031h-364.882812c-12.832032-.011719-23.230469-10.410157-23.246094-23.246094v-20.699219h411.375v20.699219c-.011719 12.835937-10.414062 23.234375-23.246094 23.246094zm0 0" fill="#0635c9"/><g fill="#1ae5be"><path d="m308.226562 142.296875h46.023438c3.035156 12.328125 14.792969 20.445313 27.394531 18.917969 12.601563-1.527344 22.078125-12.222656 22.078125-24.917969 0-12.691406-9.476562-23.386719-22.078125-24.917969-12.601562-1.527344-24.359375 6.59375-27.394531 18.917969h-46.019531c-.5-7.683594-1.988281-15.277344-4.421875-22.582031h3.527344c14.042968-.019532 25.421874-11.398438 25.4375-25.441406.007812-7.421876 6.019531-13.433594 13.441406-13.441407h3.746094c1.085937 4.445313 3.375 8.507813 6.613281 11.738281 8.0625 8.074219 20.554687 9.691407 30.410156 3.941407s14.589844-17.425781 11.527344-28.414063c-3.0625-10.992187-13.152344-18.535156-24.558594-18.363281-11.410156.175781-21.265625 8.019531-23.992187 19.097656h-3.75c-14.042969.015625-25.421876 11.398438-25.4375 25.441407-.007813 7.417968-6.023438 13.429687-13.441407 13.441406h-8.5c-15.371093-30.816406-46.847656-50.289063-81.285156-50.289063s-65.914063 19.472657-81.289063 50.289063h-8.210937c-7.421875-.011719-13.433594-6.023438-13.441406-13.441406-.015625-14.042969-11.394531-25.425782-25.441407-25.441407h-3.746093c-2.734375-11.054687-12.574219-18.878906-23.960938-19.046875-11.386719-.167968-21.457031 7.363282-24.511719 18.335938-3.058593 10.96875 1.667969 22.621094 11.5 28.363281 9.835938 5.746094 22.304688 4.136719 30.359376-3.914063 3.238281-3.230468 5.527343-7.292968 6.613281-11.738281h3.746093c7.421876.007813 13.433594 6.023438 13.441407 13.441407.015625 14.042968 11.394531 25.421874 25.4375 25.441406h3.253906c-2.113281 6.378906-3.511719 12.976562-4.167969 19.667968-.101562.972657-.171875 1.945313-.238281 2.914063h-45.765625c-3.035156-12.324219-14.792969-20.445313-27.394531-18.917969-12.601563 1.53125-22.078125 12.226563-22.078125 24.917969 0 12.695313 9.476562 23.390625 22.078125 24.917969 12.601562 1.527344 24.359375-6.589844 27.394531-18.917969h45.761719c.503906 7.6875 1.992187 15.277344 4.425781 22.585937h-3.265625c-14.042969.015626-25.421875 11.398438-25.4375 25.441407-.007813 7.417969-6.023437 13.429687-13.441406 13.441406h-3.746094c-3.035156-12.328125-14.796875-20.449219-27.394531-18.917969-12.601563 1.527344-22.078125 12.222656-22.078125 24.917969 0 12.691406 9.476562 23.386719 22.078125 24.914063 12.597656 1.53125 24.359375-6.589844 27.394531-18.914063h3.746094c14.042969-.015625 25.425781-11.398437 25.441406-25.441406.007813-7.417969 6.019531-13.429688 13.4375-13.441407h8.242187c13.949219 27.945313 41.273438 46.769532 72.351563 49.847657 3.042969.300781 6.070313.449219 9.085937.449219 34.382813-.082032 65.78125-19.539063 81.160157-50.292969h8.449219c7.417968.011719 13.429687 6.023437 13.4375 13.441406.015624 14.042969 11.394531 25.425781 25.441406 25.441406h3.746094c3.035156 12.324219 14.792968 20.445313 27.394531 18.914063 12.601562-1.527344 22.078125-12.222656 22.078125-24.914063 0-12.695312-9.476563-23.390625-22.078125-24.917969-12.601563-1.527343-24.359375 6.589844-27.394531 18.917969h-3.746094c-7.421875-.011719-13.433594-6.023437-13.441406-13.441406-.015626-14.042969-11.394532-25.425781-25.4375-25.441406h-3.515626c2.109376-6.382813 3.507813-12.976563 4.171876-19.667969.097656-.976562.167968-1.949219.234374-2.921875zm61.121094-15.25c5.113282-5.113281 13.398438-5.113281 18.507813-.003906 5.113281 5.113281 5.113281 13.398437 0 18.507812-5.109375 5.113281-13.394531 5.113281-18.507813 0-2.472656-2.441406-3.867187-5.773437-3.867187-9.253906 0-3.476563 1.394531-6.808594 3.867187-9.25zm-4.289062-73.46875c5.109375-5.109375 13.394531-5.109375 18.507812 0 5.109375 5.113281 5.109375 13.398437 0 18.507813-5.113281 5.109374-13.398437 5.109374-18.507812 0-5.101563-5.113282-5.101563-13.390626 0-18.507813zm-294.742188 18.511719c-5.109375 5.105468-13.390625 5.101562-18.496094-.007813-5.105468-5.105469-5.105468-13.386719 0-18.496093 5.105469-5.109376 13.386719-5.109376 18.496094-.003907 5.101563 5.113281 5.101563 13.390625 0 18.507813zm-4.289062 73.464844c-5.109375 5.109374-13.398438 5.109374-18.507813 0-5.113281-5.109376-5.113281-13.398438 0-18.507813 5.109375-5.109375 13.398438-5.109375 18.507813 0 2.476562 2.441406 3.867187 5.773437 3.867187 9.253906 0 3.476563-1.390625 6.808594-3.867187 9.25zm4.289062 73.464843c-5.109375 5.105469-13.386718 5.101563-18.496094-.003906-5.105468-5.109375-5.105468-13.390625 0-18.496094 5.109376-5.109375 13.386719-5.109375 18.496094-.007812 5.101563 5.113281 5.101563 13.394531 0 18.507812zm294.742188-18.507812c5.109375-5.109375 13.398437-5.109375 18.507812 0 5.113282 5.113281 5.113282 13.398437 0 18.507812-5.109375 5.113281-13.398437 5.113281-18.507812 0-5.105469-5.113281-5.105469-13.394531 0-18.507812zm-97.46875-3.238281c-29.089844 23.867187-70.988282 23.863281-100.074219-.011719-29.082031-23.875-37.25-64.96875-19.511719-98.152344 17.742188-33.183594 56.453125-49.210937 92.460938-38.285156 36.003906 10.925781 59.277344 45.769531 55.585937 83.214843-1.996093 20.832032-12.246093 40.003907-28.460937 53.234376zm0 0"/><path d="m213.644531 100.574219c-.847656-2.828125-4.335937-4.148438-7.921875-4.148438-3.488281 0-6.980468 1.320313-7.828125 4.148438l-18.207031 59.324219c-.089844.308593-.152344.625-.1875.945312 0 3.015625 4.433594 5.089844 7.734375 5.089844 2.074219 0 3.675781-.660156 4.148437-2.449219l3.585938-12.546875h21.597656l3.585938 12.546875c.46875 1.789063 2.074218 2.449219 4.148437 2.449219 3.300781 0 7.734375-2.167969 7.734375-5.089844-.027344-.324219-.089844-.640625-.1875-.945312zm-16.125 40.746093 8.199219-28.957031 8.203125 28.957031zm0 0"/><path d="m244.671875 96.988281c-3.113281 0-6.128906 1.132813-6.128906 3.773438v61.300781c0 2.546875 3.015625 3.867188 6.128906 3.867188 3.019531 0 6.128906-1.320313 6.128906-3.867188v-61.300781c0-2.640625-3.113281-3.773438-6.128906-3.773438zm0 0"/></g><path d="m55.246094 12.1875h-20c-12.832032.015625-23.230469 10.414062-23.246094 23.246094v224.976562h20v-224.976562c.015625-12.832032 10.414062-23.230469 23.246094-23.246094zm0 0" fill="#d4e1f4"/><path d="m32 293.109375v-20.699219h-20v20.699219c.015625 12.835937 10.414062 23.234375 23.246094 23.246094h20c-12.832032-.011719-23.230469-10.410157-23.246094-23.246094zm0 0" fill="#d4e1f4"/></svg>